<?xml version="1.0" encoding="iso-8859-1"?>
<!-- Uploaded to: SVG Repo, www.svgrepo.com, Generator: SVG Repo Mixer Tools -->
<svg version="1.1" id="Layer_1" xmlns="http://www.w3.org/2000/svg" xmlns:xlink="http://www.w3.org/1999/xlink" 
	 viewBox="0 0 511.982 511.982" xml:space="preserve">
<path style="fill:#FFFFFF;" d="M238.376,468.75C111.344,468.75,8,365.406,8,238.374C8,111.35,111.344,8.006,238.376,8.006
	c127.024,0,230.368,103.344,230.368,230.368C468.744,365.406,365.4,468.75,238.376,468.75z"/>
<path style="fill:#E21B1B;" d="M238.376,16.006c122.616,0,222.376,99.752,222.376,222.368S361,460.75,238.376,460.75
	S16,360.99,16,238.374S115.752,16.006,238.376,16.006 M238.376,0.006C106.72,0.006,0,106.726,0,238.374
	S106.72,476.75,238.376,476.75s238.376-106.72,238.376-238.376C476.744,106.726,370.024,0.006,238.376,0.006L238.376,0.006z"/>
<path style="fill:#FFFFFF;" d="M238.376,434.15C130.424,434.15,42.6,346.326,42.6,238.374c0-107.944,87.824-195.768,195.776-195.768
	c107.944,0,195.768,87.824,195.768,195.768C434.144,346.326,346.32,434.15,238.376,434.15z"/>
<path style="fill:#E2E2E2;" d="M238.376,46.606c105.744,0,191.768,86.024,191.768,191.768S344.12,430.142,238.376,430.142
	S46.608,344.118,46.608,238.374C46.608,132.638,132.632,46.606,238.376,46.606 M238.376,38.606
	c-110.328,0-199.768,89.44-199.768,199.768s89.44,199.768,199.768,199.768s199.768-89.44,199.768-199.768
	C438.136,128.046,348.704,38.606,238.376,38.606L238.376,38.606z"/>
<rect x="434.155" y="382.28" transform="matrix(-0.707 0.7072 -0.7072 -0.707 1089.2827 451.1119)" width="34.08" height="137.839"/>
<path style="fill:#939393;" d="M224.32,385.798v-33.976c-23.976-1.08-47.224-7.52-60.824-15.384l10.752-41.872
	c15.032,8.216,36.12,15.736,59.4,15.736c20.392,0,34.344-7.864,34.344-22.176c0-13.608-11.448-22.2-37.928-31.152
	c-38.28-12.88-64.408-30.768-64.408-65.472c0-31.496,22.2-56.184,60.48-63.696V93.798h35.048v31.496
	c23.976,1.08,40.088,6.064,51.88,11.8l-10.368,40.448c-9.296-3.936-25.752-12.184-51.536-12.184
	c-23.248,0-30.76,10.024-30.76,20.048c0,11.8,12.528,19.32,42.944,30.768c42.56,15.032,59.752,34.704,59.752,66.936
	c0,31.848-22.552,59.032-63.68,66.208v36.48H224.32z"/>
</svg>