<?xml version="1.0" standalone="no"?>
<!DOCTYPE svg PUBLIC "-//W3C//DTD SVG 20010904//EN"
 "http://www.w3.org/TR/2001/REC-SVG-20010904/DTD/svg10.dtd">
<svg version="1.0" xmlns="http://www.w3.org/2000/svg"
 width="512.000000pt" height="512.000000pt" viewBox="0 0 512.000000 512.000000"
 preserveAspectRatio="xMidYMid meet">
<metadata>
Created by potrace 1.16, written by Peter Selinger 2001-2019
</metadata>
<g transform="translate(0.000000,512.000000) scale(0.100000,-0.100000)"
fill="#000000" stroke="none">
<path d="M1208 4800 c-177 -31 -329 -146 -405 -305 -43 -91 -57 -169 -49 -277
l6 -88 -270 0 -270 0 0 -1640 0 -1640 1943 0 c2100 0 2015 -2 2123 53 104 53
192 156 237 275 19 53 21 82 25 405 l4 347 81 0 c128 1 198 40 243 135 24 50
24 52 24 419 0 251 -4 381 -12 407 -15 52 -73 117 -122 140 -30 13 -65 19
-128 19 l-88 0 0 308 c0 169 -5 336 -10 372 -21 134 -122 280 -238 343 -109
59 -60 57 -1328 57 l-1162 0 9 38 c34 147 -20 334 -133 457 -123 136 -314 205
-480 175z m192 -202 c49 -15 130 -71 163 -113 65 -82 92 -202 67 -304 l-12
-51 -328 0 -329 0 -12 54 c-60 268 186 494 451 414z m2408 -1843 c62 -26 110
-74 143 -140 29 -59 31 -71 27 -137 -6 -85 -28 -136 -85 -190 -54 -52 -115
-78 -189 -78 -120 0 -210 54 -261 158 -53 108 -34 232 50 320 78 83 210 110
315 67z"/>
</g>
</svg>
