<?xml version="1.0" encoding="iso-8859-1"?>
<!-- Uploaded to: SVG Repo, www.svgrepo.com, Generator: SVG Repo Mixer Tools -->
<svg height="800px" width="800px" version="1.1" id="Layer_1" xmlns="http://www.w3.org/2000/svg" xmlns:xlink="http://www.w3.org/1999/xlink" 
	 viewBox="0 0 512.005 512.005" xml:space="preserve">
<path style="fill:#CCCCCC;" d="M186.057,0c58.582,0.013,106.061,47.514,106.048,106.096S244.59,212.157,186.008,212.144
	c-58.567-0.013-106.039-47.49-106.048-106.056C79.951,47.506,127.434,0.009,186.016,0C186.03,0,186.043,0,186.057,0z
	 M18.057,399.864c1.824-101.296,76.279-182.856,168-182.856s166.176,81.559,168,182.856H18.057z"/>
<circle style="fill:#E21B1B;" cx="366.795" cy="384.852" r="127.153"/>
<path style="fill:#FFFFFF;" d="M360.32,463v-19.2c-10.299-0.044-20.383-2.956-29.12-8.408l4.56-12.76
	c8.171,5.309,17.696,8.152,27.439,8.192c13.52,0,22.656-7.808,22.656-18.656c0-10.472-7.424-16.944-21.512-22.656
	c-19.416-7.624-31.416-16.376-31.416-32.936c0.231-16.109,12.691-29.394,28.752-30.656v-19.2h11.8v18.463
	c8.687,0.069,17.212,2.363,24.76,6.664l-4.8,12.568c-7.254-4.321-15.557-6.56-24-6.472c-14.664,0-20.176,8.752-20.176,16.368
	c0,9.904,7.048,14.856,23.608,21.704c19.608,8,29.504,17.896,29.504,34.84c-0.312,16.877-13.271,30.817-30.079,32.36v19.808
	L360.32,463z"/>
</svg>